<?xml version="1.0" encoding="UTF-8"?>
<!-- Generator: Adobe Illustrator 25.2.1, SVG Export Plug-In . SVG Version: 6.00 Build 0)  -->
<svg xmlns="http://www.w3.org/2000/svg" xmlns:xlink="http://www.w3.org/1999/xlink" version="1.1" id="Layer_1" x="0px" y="0px" viewBox="0 0 180 80.64" style="enable-background:new 0 0 180 80.64;" xml:space="preserve">
<style type="text/css">
	.st0{fill:url(#XMLID_16_);}
	.st1{fill:url(#XMLID_17_);}
	.st2{fill:url(#XMLID_18_);}
	.st3{fill:url(#XMLID_19_);}
	.st4{fill:url(#XMLID_20_);}
	.st5{fill:url(#XMLID_21_);}
	.st6{fill:url(#XMLID_22_);}
	.st7{fill:url(#XMLID_23_);}
	.st8{fill:url(#XMLID_24_);}
	.st9{fill:url(#XMLID_25_);}
	.st10{fill:url(#XMLID_26_);}
	.st11{fill:url(#XMLID_27_);}
</style>
<g>
	
		<linearGradient id="XMLID_16_" gradientUnits="userSpaceOnUse" x1="125.2558" y1="2.2369" x2="-24.3344" y2="38.0284" gradientTransform="matrix(1 0 0 1 11 7.292645e-06)">
		<stop offset="0" style="stop-color:#606162"></stop>
		<stop offset="1" style="stop-color:#2D2E2D"></stop>
	</linearGradient>
	<path id="XMLID_41_" class="st0" d="M13.88,60.72c-11.64,0-15.89-7.17-13.02-19.02L10.98,0l10.74,0L11.61,41.67   c-1.48,6.1-0.95,9.49,4.59,9.49h12.57l-2.32,9.56H13.88z"></path>
	
		<linearGradient id="XMLID_17_" gradientUnits="userSpaceOnUse" x1="36.0438" y1="3.8447" x2="36.0438" y2="60.7514" gradientTransform="matrix(1 0 0 1 11 7.292645e-06)">
		<stop offset="0" style="stop-color:#F9B916"></stop>
		<stop offset="1" style="stop-color:#F37F21"></stop>
	</linearGradient>
	<path id="XMLID_38_" class="st1" d="M34.62,60.72L49.35,0l3.96,0L38.58,60.72H34.62z M40.78,60.72L55.51,0l3.96,0L44.74,60.72   H40.78z"></path>
	
		<linearGradient id="XMLID_18_" gradientUnits="userSpaceOnUse" x1="130.7132" y1="14.817" x2="-18.877" y2="50.6085" gradientTransform="matrix(1 0 0 1 11 7.292645e-06)">
		<stop offset="0" style="stop-color:#606162"></stop>
		<stop offset="1" style="stop-color:#2D2E2D"></stop>
	</linearGradient>
	<path id="XMLID_36_" class="st2" d="M71.92,60.72c-11.64,0-15.89-7.17-13.02-19.02L69.02,0l10.74,0L69.65,41.67   c-1.48,6.1-0.95,9.49,4.59,9.49h12.57l-2.32,9.56H71.92z"></path>
	
		<linearGradient id="XMLID_19_" gradientUnits="userSpaceOnUse" x1="134.5732" y1="23.2782" x2="-15.017" y2="59.0697" gradientTransform="matrix(1 0 0 1 11 7.292645e-06)">
		<stop offset="0" style="stop-color:#606162"></stop>
		<stop offset="1" style="stop-color:#2D2E2D"></stop>
	</linearGradient>
	<path id="XMLID_34_" class="st3" d="M92.98,60.72L107.7,0l31.28,0l-2.32,9.56h-20.54l-3.59,15.23h17.8l-2.32,9.56h-17.8   l-4.18,16.81h20.54l-2.32,9.56H92.98z"></path>
	
		<linearGradient id="XMLID_20_" gradientUnits="userSpaceOnUse" x1="137.9517" y1="32.2842" x2="-11.6385" y2="68.0757" gradientTransform="matrix(1 0 0 1 11 7.292645e-06)">
		<stop offset="0" style="stop-color:#606162"></stop>
		<stop offset="1" style="stop-color:#2D2E2D"></stop>
	</linearGradient>
	<path id="XMLID_32_" class="st4" d="M134,60.72L148.72,0L180,0l-2.32,9.56h-20.54l-3.59,15.23h17.8l-2.32,9.56h-17.8l-4.18,16.81   h20.54l-2.32,9.56H134z"></path>
	<linearGradient id="XMLID_21_" gradientUnits="userSpaceOnUse" x1="176.6691" y1="-21.9621" x2="14.9834" y2="72.8727">
		<stop offset="0" style="stop-color:#606162"></stop>
		<stop offset="1" style="stop-color:#2D2E2D"></stop>
	</linearGradient>
	<path id="XMLID_2_" class="st5" d="M10.29,77.31c0.15,0.29,0.35,0.52,0.6,0.7c0.25,0.18,0.54,0.31,0.88,0.4   c0.34,0.09,0.68,0.13,1.04,0.13c0.24,0,0.5-0.02,0.78-0.06c0.28-0.04,0.54-0.12,0.78-0.23c0.24-0.12,0.45-0.27,0.61-0.48   c0.16-0.2,0.24-0.46,0.24-0.77c0-0.34-0.11-0.61-0.32-0.82c-0.21-0.21-0.49-0.38-0.84-0.52c-0.35-0.14-0.74-0.26-1.18-0.36   c-0.44-0.1-0.89-0.22-1.34-0.35c-0.46-0.12-0.91-0.26-1.35-0.43c-0.44-0.17-0.83-0.38-1.18-0.65c-0.35-0.27-0.63-0.6-0.84-1   c-0.21-0.4-0.32-0.88-0.32-1.45c0-0.64,0.14-1.19,0.41-1.66c0.27-0.47,0.63-0.86,1.07-1.17c0.44-0.31,0.94-0.54,1.49-0.69   c0.56-0.15,1.11-0.23,1.67-0.23c0.65,0,1.27,0.07,1.87,0.22c0.6,0.14,1.13,0.38,1.59,0.7c0.46,0.32,0.83,0.74,1.1,1.24   c0.27,0.5,0.41,1.11,0.41,1.83h-2.64c-0.02-0.37-0.1-0.68-0.23-0.92c-0.13-0.24-0.31-0.43-0.53-0.57c-0.22-0.14-0.47-0.24-0.76-0.3   c-0.28-0.06-0.59-0.09-0.93-0.09c-0.22,0-0.44,0.02-0.66,0.07c-0.22,0.05-0.42,0.13-0.6,0.24c-0.18,0.12-0.33,0.26-0.44,0.43   c-0.12,0.17-0.17,0.39-0.17,0.66c0,0.24,0.05,0.44,0.14,0.59c0.09,0.15,0.27,0.29,0.55,0.42c0.27,0.13,0.65,0.25,1.13,0.38   c0.48,0.13,1.11,0.29,1.88,0.49c0.23,0.05,0.55,0.13,0.96,0.25c0.41,0.12,0.82,0.32,1.22,0.58c0.41,0.27,0.76,0.62,1.05,1.07   c0.3,0.45,0.44,1.02,0.44,1.71c0,0.57-0.11,1.09-0.33,1.58c-0.22,0.49-0.55,0.91-0.98,1.26c-0.43,0.35-0.97,0.63-1.61,0.82   c-0.64,0.2-1.39,0.3-2.23,0.3c-0.68,0-1.35-0.08-1.99-0.25c-0.64-0.17-1.21-0.43-1.7-0.79c-0.49-0.36-0.88-0.82-1.17-1.37   c-0.29-0.56-0.43-1.22-0.42-1.98h2.64C10.07,76.67,10.14,77.02,10.29,77.31z"></path>
	<linearGradient id="XMLID_22_" gradientUnits="userSpaceOnUse" x1="176.9928" y1="-9.498" x2="15.3072" y2="85.3369">
		<stop offset="0" style="stop-color:#606162"></stop>
		<stop offset="1" style="stop-color:#2D2E2D"></stop>
	</linearGradient>
	<path id="XMLID_4_" class="st6" d="M30.71,67.97h3.06l2.9,4.9l2.88-4.9h3.04l-4.6,7.64v4.76h-2.73v-4.83L30.71,67.97z"></path>
	<linearGradient id="XMLID_23_" gradientUnits="userSpaceOnUse" x1="179.1416" y1="4.7522" x2="17.4559" y2="99.5871">
		<stop offset="0" style="stop-color:#606162"></stop>
		<stop offset="1" style="stop-color:#2D2E2D"></stop>
	</linearGradient>
	<path id="XMLID_6_" class="st7" d="M58.31,77.31c0.15,0.29,0.35,0.52,0.6,0.7c0.25,0.18,0.54,0.31,0.88,0.4   c0.34,0.09,0.68,0.13,1.04,0.13c0.24,0,0.5-0.02,0.78-0.06c0.28-0.04,0.54-0.12,0.78-0.23c0.24-0.12,0.45-0.27,0.61-0.48   c0.16-0.2,0.24-0.46,0.24-0.77c0-0.34-0.11-0.61-0.32-0.82c-0.21-0.21-0.49-0.38-0.84-0.52c-0.35-0.14-0.74-0.26-1.18-0.36   c-0.44-0.1-0.89-0.22-1.34-0.35c-0.46-0.12-0.91-0.26-1.35-0.43c-0.44-0.17-0.83-0.38-1.18-0.65c-0.35-0.27-0.63-0.6-0.84-1   c-0.21-0.4-0.32-0.88-0.32-1.45c0-0.64,0.14-1.19,0.41-1.66c0.27-0.47,0.63-0.86,1.07-1.17c0.44-0.31,0.94-0.54,1.49-0.69   c0.56-0.15,1.11-0.23,1.67-0.23c0.65,0,1.27,0.07,1.87,0.22c0.6,0.14,1.13,0.38,1.59,0.7c0.46,0.32,0.83,0.74,1.1,1.24   c0.27,0.5,0.41,1.11,0.41,1.83h-2.64c-0.02-0.37-0.1-0.68-0.23-0.92c-0.13-0.24-0.31-0.43-0.53-0.57c-0.22-0.14-0.47-0.24-0.76-0.3   c-0.28-0.06-0.59-0.09-0.93-0.09c-0.22,0-0.44,0.02-0.66,0.07c-0.22,0.05-0.42,0.13-0.6,0.24c-0.18,0.12-0.33,0.26-0.44,0.43   c-0.12,0.17-0.17,0.39-0.17,0.66c0,0.24,0.05,0.44,0.14,0.59c0.09,0.15,0.27,0.29,0.55,0.42c0.27,0.13,0.65,0.25,1.13,0.38   c0.48,0.13,1.11,0.29,1.88,0.49c0.23,0.05,0.55,0.13,0.96,0.25c0.41,0.12,0.82,0.32,1.22,0.58c0.41,0.27,0.76,0.62,1.05,1.07   c0.3,0.45,0.44,1.02,0.44,1.71c0,0.57-0.11,1.09-0.33,1.58c-0.22,0.49-0.55,0.91-0.98,1.26c-0.43,0.35-0.97,0.63-1.61,0.82   c-0.64,0.2-1.39,0.3-2.23,0.3c-0.68,0-1.35-0.08-1.99-0.25c-0.64-0.17-1.21-0.43-1.7-0.79c-0.49-0.36-0.88-0.82-1.17-1.37   c-0.29-0.56-0.43-1.22-0.42-1.98h2.64C58.08,76.67,58.16,77.02,58.31,77.31z"></path>
	<linearGradient id="XMLID_24_" gradientUnits="userSpaceOnUse" x1="179.5788" y1="17.4097" x2="17.8931" y2="112.2445">
		<stop offset="0" style="stop-color:#606162"></stop>
		<stop offset="1" style="stop-color:#2D2E2D"></stop>
	</linearGradient>
	<path id="XMLID_8_" class="st8" d="M79.59,70.26v-2.29h10.16v2.29h-3.72v10.11h-2.73V70.26H79.59z"></path>
	<linearGradient id="XMLID_25_" gradientUnits="userSpaceOnUse" x1="181.5798" y1="31.4081" x2="19.8941" y2="126.2429">
		<stop offset="0" style="stop-color:#606162"></stop>
		<stop offset="1" style="stop-color:#2D2E2D"></stop>
	</linearGradient>
	<path id="XMLID_10_" class="st9" d="M113.25,67.97v2.29h-6.55v2.66h6.01v2.12h-6.01v3.04h6.69v2.29h-9.41v-12.4H113.25z"></path>
	<linearGradient id="XMLID_26_" gradientUnits="userSpaceOnUse" x1="181.3701" y1="45.6133" x2="19.6845" y2="140.4482">
		<stop offset="0" style="stop-color:#606162"></stop>
		<stop offset="1" style="stop-color:#2D2E2D"></stop>
	</linearGradient>
	<path id="XMLID_12_" class="st10" d="M129.85,67.97l2.9,8.53h0.03l2.74-8.53h3.84v12.4h-2.55v-8.79h-0.03l-3.04,8.79h-2.1   l-3.04-8.7h-0.03v8.7h-2.55v-12.4H129.85z"></path>
	<linearGradient id="XMLID_27_" gradientUnits="userSpaceOnUse" x1="182.3516" y1="59.1987" x2="20.6659" y2="154.0336">
		<stop offset="0" style="stop-color:#606162"></stop>
		<stop offset="1" style="stop-color:#2D2E2D"></stop>
	</linearGradient>
	<path id="XMLID_14_" class="st11" d="M154.35,77.31c0.15,0.29,0.35,0.52,0.6,0.7c0.25,0.18,0.54,0.31,0.88,0.4   c0.34,0.09,0.68,0.13,1.04,0.13c0.24,0,0.5-0.02,0.78-0.06c0.28-0.04,0.54-0.12,0.78-0.23c0.24-0.12,0.45-0.27,0.61-0.48   c0.16-0.2,0.24-0.46,0.24-0.77c0-0.34-0.11-0.61-0.32-0.82c-0.21-0.21-0.49-0.38-0.84-0.52c-0.35-0.14-0.74-0.26-1.18-0.36   c-0.44-0.1-0.89-0.22-1.34-0.35c-0.46-0.12-0.91-0.26-1.35-0.43c-0.44-0.17-0.83-0.38-1.18-0.65c-0.35-0.27-0.63-0.6-0.84-1   c-0.21-0.4-0.32-0.88-0.32-1.45c0-0.64,0.14-1.19,0.41-1.66c0.27-0.47,0.63-0.86,1.07-1.17c0.44-0.31,0.94-0.54,1.49-0.69   c0.56-0.15,1.11-0.23,1.67-0.23c0.65,0,1.27,0.07,1.87,0.22c0.6,0.14,1.13,0.38,1.59,0.7c0.46,0.32,0.83,0.74,1.1,1.24   c0.27,0.5,0.41,1.11,0.41,1.83h-2.64c-0.02-0.37-0.1-0.68-0.23-0.92c-0.13-0.24-0.31-0.43-0.53-0.57c-0.22-0.14-0.47-0.24-0.76-0.3   c-0.28-0.06-0.59-0.09-0.93-0.09c-0.22,0-0.44,0.02-0.66,0.07c-0.22,0.05-0.42,0.13-0.6,0.24c-0.18,0.12-0.33,0.26-0.44,0.43   c-0.12,0.17-0.17,0.39-0.17,0.66c0,0.24,0.05,0.44,0.14,0.59c0.09,0.15,0.27,0.29,0.55,0.42c0.27,0.13,0.65,0.25,1.13,0.38   c0.48,0.13,1.11,0.29,1.88,0.49c0.23,0.05,0.55,0.13,0.96,0.25c0.41,0.12,0.82,0.32,1.22,0.58c0.41,0.27,0.76,0.62,1.05,1.07   c0.3,0.45,0.44,1.02,0.44,1.71c0,0.57-0.11,1.09-0.33,1.58c-0.22,0.49-0.55,0.91-0.98,1.26c-0.43,0.35-0.97,0.63-1.62,0.82   c-0.64,0.2-1.39,0.3-2.23,0.3c-0.68,0-1.35-0.08-1.99-0.25s-1.21-0.43-1.7-0.79c-0.49-0.36-0.88-0.82-1.17-1.37   c-0.29-0.56-0.43-1.22-0.42-1.98h2.64C154.12,76.67,154.2,77.02,154.35,77.31z"></path>
</g>
</svg>
